<?xml version="1.0" encoding="UTF-8" standalone="no"?>
<svg
   width="500pt"
   height="115pt"
   viewBox="0 0 500 115"
   version="1.1"
   id="svg6"
   sodipodi:docname="spring_compressed.svg"
   inkscape:version="1.3.2 (1:1.3.2+202311252150+091e20ef0f)"
   xmlns:inkscape="http://www.inkscape.org/namespaces/inkscape"
   xmlns:sodipodi="http://sodipodi.sourceforge.net/DTD/sodipodi-0.dtd"
   xmlns="http://www.w3.org/2000/svg"
   xmlns:svg="http://www.w3.org/2000/svg">
  <sodipodi:namedview
     id="namedview6"
     pagecolor="#ffffff"
     bordercolor="#666666"
     borderopacity="1.0"
     inkscape:showpageshadow="2"
     inkscape:pageopacity="0.0"
     inkscape:pagecheckerboard="0"
     inkscape:deskcolor="#d1d1d1"
     inkscape:document-units="pt"
     inkscape:zoom="1.6058395"
     inkscape:cx="264.97044"
     inkscape:cy="193.97954"
     inkscape:window-width="2560"
     inkscape:window-height="1403"
     inkscape:window-x="2560"
     inkscape:window-y="0"
     inkscape:window-maximized="1"
     inkscape:current-layer="surface11" />
  <defs
     id="defs1">
    <clipPath
       id="clip1">
      <path
         d="M 249 0 L 251 0 L 251 114.480469 L 249 114.480469 Z M 249 0 "
         id="path1" />
    </clipPath>
    <marker
       style="overflow:visible"
       id="ConcaveTriangle"
       refX="0"
       refY="0"
       orient="auto-start-reverse"
       inkscape:stockid="Concave triangle arrow"
       markerWidth="2"
       markerHeight="2"
       viewBox="0 0 1 1"
       inkscape:isstock="true"
       inkscape:collect="always"
       preserveAspectRatio="xMidYMid">
      <path
         transform="scale(0.7)"
         d="M -2,-4 9,0 -2,4 c 2,-2.33 2,-5.66 0,-8 z"
         style="fill:context-stroke;fill-rule:evenodd;stroke:none"
         id="path7" />
    </marker>
    <marker
       style="overflow:visible"
       id="ConcaveTriangle-6"
       refX="0"
       refY="0"
       orient="auto-start-reverse"
       inkscape:stockid="Concave triangle arrow"
       markerWidth="2"
       markerHeight="2"
       viewBox="0 0 1 1"
       inkscape:isstock="true"
       inkscape:collect="always"
       preserveAspectRatio="xMidYMid">
      <path
         transform="scale(0.7)"
         d="M -2,-4 9,0 -2,4 c 2,-2.33 2,-5.66 0,-8 z"
         style="fill:context-stroke;fill-rule:evenodd;stroke:none"
         id="path7-7" />
    </marker>
  </defs>
  <g
     id="surface11">
    <path
       style="fill:none;stroke:#000000;stroke-width:1;stroke-linecap:square;stroke-linejoin:miter;stroke-miterlimit:3.25;stroke-opacity:1"
       d="m 193.01172,57.203125 c 0.64742,-8.472094 0.89263,-17.019956 2.42942,-25.390625 0.1374,-1.662432 1.21821,-0.889418 1.1755,0.347662 1.48971,9.908608 1.63799,19.963436 2.40472,29.943908 0.64233,8.183233 0.82811,16.4349 2.15624,24.544374 -0.0218,0.728611 0.66298,1.099443 0.7273,0.171872 1.35484,-7.745491 1.50298,-15.650278 2.12053,-23.479092 0.83713,-11.548657 1.18584,-23.150654 2.66066,-34.642001 0.0283,-0.449157 0.44216,-2.556431 0.8836,-1.246113 1.33552,7.182844 1.45274,14.535775 2.04256,21.807202 0.87556,12.070212 1.25224,24.192092 2.73872,36.208423 0.21466,0.506457 0.0739,1.88878 0.7273,1.914041 1.14996,-3.880173 1.08646,-8.042237 1.5288,-12.05469 1.21934,-15.194467 1.66108,-30.453706 3.33075,-45.609375 0.25615,-0.823875 0.0668,-2.262606 0.8055,-2.730469 1.08851,3.148335 0.9855,6.626208 1.39827,9.92406 1.32967,15.908568 1.76257,31.890176 3.49648,47.763456 0.26002,0.831836 0.0668,2.258595 0.8055,2.746088 1.07486,-3.051358 0.97462,-6.44029 1.3764,-9.644544 1.35223,-15.996749 1.77476,-32.069301 3.52217,-48.03125 0.254,-0.841205 0.0695,-2.255536 0.8016,-2.76171 1.08214,3.04093 0.97141,6.425512 1.3803,9.621103 1.34618,16.00108 1.77738,32.07649 3.51828,48.042969 0.25833,0.845976 0.0694,2.265838 0.8055,2.777342 1.07801,-3.034436 0.97209,-6.409407 1.3764,-9.597661 1.35273,-16.004514 1.77646,-32.084763 3.52208,-48.054687 0.25095,-0.857107 0.0706,-2.257486 0.8016,-2.792966 1.07106,2.959704 0.96101,6.265849 1.36123,9.381222 1.36455,16.072311 1.7898,32.220784 3.53726,48.259404 0.25541,0.863953 0.0734,2.258708 0.8016,2.808607 1.07571,-3.418307 1.02331,-7.176587 1.43474,-10.748294 1.28358,-15.614608 1.72758,-31.297656 3.42302,-46.876693 0.25752,-0.868437 0.0745,-2.270837 0.8055,-2.824217 1.05686,2.853481 0.94592,6.061886 1.3373,9.074219 1.38718,16.163051 1.80383,32.404781 3.56069,48.535156 0.25287,0.876266 0.0754,2.272272 0.8015,2.839855 1.06441,-2.84173 0.94158,-6.047496 1.3409,-9.050778 1.37958,-16.167519 1.80827,-32.411764 3.5565,-48.546875 0.24737,-0.896293 0.0799,-2.267441 0.8054,-2.855471 1.0598,2.838618 0.94238,6.033456 1.337,9.031256 1.38257,16.169947 1.81298,32.416392 3.55708,48.554688 0.2499,0.903074 0.0832,2.26797 0.8053,2.8711 1.06698,-2.825213 0.93965,-6.019375 1.3409,-9.007815 1.37985,-16.172744 1.80905,-32.422152 3.5568,-48.5625 0.2412,-0.909024 0.0874,-2.278152 0.8015,-2.886729 1.04236,2.664242 0.91528,5.707822 1.3017,8.539057 1.4158,16.32199 1.83646,32.723926 3.59575,49.015625 0.2485,0.915028 0.0848,2.282525 0.8055,2.902331 1.08106,-2.803784 0.9282,-5.988344 1.31163,-8.960934 1.40191,-16.26954 1.80813,-32.620203 3.59578,-48.855468 0.25728,-0.770198 0.0638,-2.248278 0.8053,-2.617187 1.11859,3.436848 1.02799,7.188345 1.4543,10.769532 1.28802,15.65832 1.71589,31.387916 3.44319,47.007813 0.25174,0.778605 0.0644,2.248546 0.8015,2.632821 1.11999,-3.424466 1.03162,-7.169797 1.4542,-10.742185 1.29072,-15.663383 1.72044,-31.397774 3.44337,-47.023438 0.25791,-0.785206 0.0624,-2.250877 0.8054,-2.648423 1.10319,3.360999 1.00532,7.037302 1.42951,10.541226 1.20595,14.249636 1.57325,28.567382 3.11585,42.786907 0.29424,1.04332 0.0981,2.734772 1.0233,3.335937 1.28917,-2.946666 1.16832,-6.367339 1.6324,-9.53516 0.52654,-5.632303 0.91344,-11.276585 1.26952,-16.921875"
       id="path2" />
    <path
       style=" stroke:none;fill-rule:evenodd;fill:rgb(100%,0%,0%);fill-opacity:1;"
       d="M 193.011719 57.203125 C 193.011719 49.683594 190.023438 42.472656 184.707031 37.15625 C 179.390625 31.839844 172.179688 28.851562 164.660156 28.851562 C 157.140625 28.851562 149.929688 31.839844 144.613281 37.15625 C 139.292969 42.472656 136.308594 49.683594 136.308594 57.203125 C 136.308594 64.722656 139.292969 71.9375 144.613281 77.253906 C 149.929688 82.570312 157.140625 85.558594 164.660156 85.558594 C 172.179688 85.558594 179.390625 82.570312 184.707031 77.253906 C 190.023438 71.9375 193.011719 64.722656 193.011719 57.203125 Z M 193.011719 57.203125 "
       id="path3" />
    <path
       style=" stroke:none;fill-rule:evenodd;fill:rgb(0%,0%,100%);fill-opacity:1;"
       d="M 363.691406 57.203125 C 363.691406 49.683594 360.707031 42.472656 355.386719 37.15625 C 350.070312 31.839844 342.859375 28.851562 335.339844 28.851562 C 327.820312 28.851562 320.609375 31.839844 315.292969 37.15625 C 309.976562 42.472656 306.988281 49.683594 306.988281 57.203125 C 306.988281 64.722656 309.976562 71.9375 315.292969 77.253906 C 320.609375 82.570312 327.820312 85.558594 335.339844 85.558594 C 342.859375 85.558594 350.070312 82.570312 355.386719 77.253906 C 360.707031 71.9375 363.691406 64.722656 363.691406 57.203125 Z M 363.691406 57.203125 "
       id="path4" />
    <path
       style="fill:none;stroke:#000000;stroke-width:1.00063;stroke-linecap:butt;stroke-linejoin:miter;stroke-dasharray:none;stroke-opacity:1;marker-end:url(#ConcaveTriangle)"
       d="m 316.53588,15.748034 h 24.99999"
       id="path5" />
    <path
       style="fill:none;stroke:#000000;stroke-width:1.00063;stroke-linecap:butt;stroke-linejoin:miter;stroke-dasharray:none;stroke-opacity:1;marker-end:url(#ConcaveTriangle-6)"
       d="m 183.46413,15.748034 h -25"
       id="path5-5" />
  </g>
</svg>
