<?xml version="1.0" encoding="UTF-8" standalone="no"?>
<svg
   width="500pt"
   height="115pt"
   viewBox="0 0 500 115"
   version="1.1"
   id="svg6"
   sodipodi:docname="spring_expanded.svg"
   inkscape:version="1.3.2 (1:1.3.2+202311252150+091e20ef0f)"
   xmlns:inkscape="http://www.inkscape.org/namespaces/inkscape"
   xmlns:sodipodi="http://sodipodi.sourceforge.net/DTD/sodipodi-0.dtd"
   xmlns="http://www.w3.org/2000/svg"
   xmlns:svg="http://www.w3.org/2000/svg">
  <sodipodi:namedview
     id="namedview6"
     pagecolor="#ffffff"
     bordercolor="#666666"
     borderopacity="1.0"
     inkscape:showpageshadow="2"
     inkscape:pageopacity="0.0"
     inkscape:pagecheckerboard="0"
     inkscape:deskcolor="#d1d1d1"
     inkscape:document-units="pt"
     inkscape:zoom="2.271"
     inkscape:cx="333.11317"
     inkscape:cy="76.838397"
     inkscape:window-width="2560"
     inkscape:window-height="1403"
     inkscape:window-x="2560"
     inkscape:window-y="0"
     inkscape:window-maximized="1"
     inkscape:current-layer="surface1"
     showgrid="false" />
  <defs
     id="defs1">
    <marker
       style="overflow:visible"
       id="ConcaveTriangle"
       refX="0"
       refY="0"
       orient="auto-start-reverse"
       inkscape:stockid="Concave triangle arrow"
       markerWidth="2"
       markerHeight="2"
       viewBox="0 0 1 1"
       inkscape:isstock="true"
       inkscape:collect="always"
       preserveAspectRatio="xMidYMid">
      <path
         transform="scale(0.7)"
         d="M -2,-4 9,0 -2,4 c 2,-2.33 2,-5.66 0,-8 z"
         style="fill:context-stroke;fill-rule:evenodd;stroke:none"
         id="path7" />
    </marker>
    <clipPath
       id="clip1">
      <path
         d="M 249 0 L 251 0 L 251 114.480469 L 249 114.480469 Z M 249 0 "
         id="path1" />
    </clipPath>
    <marker
       style="overflow:visible"
       id="ConcaveTriangle-6"
       refX="0"
       refY="0"
       orient="auto-start-reverse"
       inkscape:stockid="Concave triangle arrow"
       markerWidth="2"
       markerHeight="2"
       viewBox="0 0 1 1"
       inkscape:isstock="true"
       inkscape:collect="always"
       preserveAspectRatio="xMidYMid">
      <path
         transform="scale(0.7)"
         d="M -2,-4 9,0 -2,4 c 2,-2.33 2,-5.66 0,-8 z"
         style="fill:context-stroke;fill-rule:evenodd;stroke:none"
         id="path7-7" />
    </marker>
  </defs>
  <g
     id="surface1">
    <path
       style="fill:none;stroke:#000000;stroke-width:1.00063;stroke-linecap:square;stroke-linejoin:miter;stroke-miterlimit:3.25;stroke-dasharray:none;stroke-opacity:1"
       d="m 136.58984,57.203125 c 1.34355,-8.589159 1.77289,-17.537832 5,-25.679687 1.39064,-2.253188 2.63498,1.371593 2.81641,2.562506 3.68315,16.858857 3.93664,34.311501 7.89268,51.121093 0.007,1.531831 1.79637,3.338604 2.2845,0.949217 3.06715,-11.300506 3.72459,-23.096045 5.40084,-34.65625 1.23601,-7.974985 1.61301,-16.222589 4.2605,-23.886719 1.12957,-1.866593 2.02369,1.40696 2.2064,2.29295 3.98032,18.159652 4.35361,36.929343 8.4429,55.066406 0.0315,1.270288 1.58675,3.752785 2.2806,1.390601 2.96535,-10.330365 3.55587,-21.175467 5.0962,-31.78125 1.34096,-8.950164 1.80815,-18.151854 4.5651,-26.808593 0.92066,-2.079208 2.10443,0.82869 2.2064,1.82814 4.04926,18.148199 4.42219,36.920265 8.44302,55.074219 0.13292,0.941785 1.19348,4.029522 2.2064,2.031231 2.83428,-8.770458 3.2732,-18.120608 4.6393,-27.199219 1.51497,-10.471512 2.12497,-21.168203 5.02204,-31.375 0.20197,-1.487972 1.73608,-1.354604 1.9018,0.07033 3.06763,11.217365 3.71431,22.933879 5.38353,34.413558 1.26409,8.102942 1.60201,16.509862 4.35201,24.277848 1.36877,1.68687 1.99659,-2.000583 2.28064,-2.898443 3.87413,-18.0722 4.28639,-36.726376 8.39123,-54.74997 0.0184,-1.442214 1.73653,-3.436986 2.2806,-1.062496 3.04585,11.045365 3.68171,22.592497 5.32664,33.902344 1.2533,8.2344 1.66851,16.730541 4.3347,24.660156 1.0632,1.945071 2.04862,-1.227528 2.2064,-2.140619 4.00088,-18.158145 4.37641,-36.92979 8.4429,-55.074219 0.0856,-1.037778 1.33935,-3.83564 2.2064,-1.714842 2.90838,9.453539 3.40243,19.465109 4.84871,29.214807 1.43233,9.807004 1.99321,19.842978 4.80877,29.378943 0.64951,2.211775 2.16991,-0.01153 2.2064,-1.249985 4.10846,-18.020518 4.51679,-36.672903 8.3687,-54.746094 0.42623,-0.895902 0.57575,-3.904997 2.0541,-3.222652 2.60469,5.790834 2.71131,12.404133 3.8036,18.609375 1.92135,13.180031 2.77506,26.562369 5.85383,39.542969 0.0829,1.034168 1.36087,3.17016 2.05415,1.273442 2.88017,-9.223911 3.35691,-19.011307 4.77742,-28.534751 1.45623,-10.0327 2.03414,-20.293704 4.88391,-30.055093 0.6143,-2.216719 2.17292,-0.0921 2.2064,1.179671 4.11715,18.016269 4.52287,36.666638 8.36874,54.738281 0.43272,0.91382 0.56054,3.907385 2.0502,3.285149 2.56789,-5.569801 2.66669,-11.973334 3.7294,-17.96484 1.99057,-13.462174 2.80517,-27.149737 6.01005,-40.398437 0.0494,-1.192953 1.52394,-2.863235 2.0541,-0.937498 2.94999,9.972818 3.49831,20.479998 5.00134,30.738199 1.37157,9.299986 1.88764,18.837294 4.65606,27.855551 0.89133,2.277914 2.20561,-0.710527 2.2845,-1.804677 4.02747,-18.152602 4.40292,-36.924321 8.44294,-55.074219 0.11062,-0.983141 1.26177,-3.956709 2.2064,-1.886697 2.89015,9.335441 3.37956,19.232426 4.82783,28.862909 1.36743,8.730764 1.53706,17.808889 4.50255,26.191779 1.2732,2.348774 2.70541,-1.152897 2.91407,-2.398442 2.08667,-7.576423 2.94678,-15.442255 4,-23.210937"
       id="path2" />
    <path
       style=" stroke:none;fill-rule:evenodd;fill:rgb(100%,0%,0%);fill-opacity:1;"
       d="M 136.589844 57.203125 C 136.589844 49.683594 133.605469 42.472656 128.285156 37.15625 C 122.96875 31.839844 115.757812 28.851562 108.238281 28.851562 C 100.71875 28.851562 93.507812 31.839844 88.191406 37.15625 C 82.875 42.472656 79.886719 49.683594 79.886719 57.203125 C 79.886719 64.722656 82.875 71.9375 88.191406 77.253906 C 93.507812 82.570312 100.71875 85.558594 108.238281 85.558594 C 115.757812 85.558594 122.96875 82.570312 128.285156 77.253906 C 133.605469 71.9375 136.589844 64.722656 136.589844 57.203125 Z M 136.589844 57.203125 "
       id="path3" />
    <path
       style=" stroke:none;fill-rule:evenodd;fill:rgb(0%,0%,100%);fill-opacity:1;"
       d="M 420.113281 57.203125 C 420.113281 49.683594 417.125 42.472656 411.808594 37.15625 C 406.492188 31.839844 399.28125 28.851562 391.761719 28.851562 C 384.242188 28.851562 377.03125 31.839844 371.714844 37.15625 C 366.394531 42.472656 363.410156 49.683594 363.410156 57.203125 C 363.410156 64.722656 366.394531 71.9375 371.714844 77.253906 C 377.03125 82.570312 384.242188 85.558594 391.761719 85.558594 C 399.28125 85.558594 406.492188 82.570312 411.808594 77.253906 C 417.125 71.9375 420.113281 64.722656 420.113281 57.203125 Z M 420.113281 57.203125 "
       id="path4" />
    <path
       style="fill:none;stroke:#000000;stroke-width:1.00063;stroke-linecap:butt;stroke-linejoin:miter;stroke-dasharray:none;stroke-opacity:1;marker-end:url(#ConcaveTriangle)"
       d="M 89.434313,15.748034 H 114.43431"
       id="path5" />
    <path
       style="fill:none;stroke:#000000;stroke-width:1.00063;stroke-linecap:butt;stroke-linejoin:miter;stroke-dasharray:none;stroke-opacity:1;marker-end:url(#ConcaveTriangle-6)"
       d="m 410.56569,15.748034 h -25"
       id="path5-5" />
  </g>
</svg>
