<?xml version="1.0" encoding="UTF-8" standalone="no"?>
<svg
   width="500pt"
   height="115pt"
   viewBox="0 0 500 115"
   version="1.1"
   id="svg6"
   sodipodi:docname="spring_equilibrium.svg"
   inkscape:version="1.3.2 (1:1.3.2+202311252150+091e20ef0f)"
   xmlns:inkscape="http://www.inkscape.org/namespaces/inkscape"
   xmlns:sodipodi="http://sodipodi.sourceforge.net/DTD/sodipodi-0.dtd"
   xmlns="http://www.w3.org/2000/svg"
   xmlns:svg="http://www.w3.org/2000/svg">
  <sodipodi:namedview
     id="namedview6"
     pagecolor="#ffffff"
     bordercolor="#666666"
     borderopacity="1.0"
     inkscape:showpageshadow="2"
     inkscape:pageopacity="0.0"
     inkscape:pagecheckerboard="0"
     inkscape:deskcolor="#d1d1d1"
     inkscape:document-units="pt"
     showgrid="false"
     inkscape:zoom="1.0097485"
     inkscape:cx="374.35064"
     inkscape:cy="-26.244159"
     inkscape:window-width="2560"
     inkscape:window-height="1403"
     inkscape:window-x="2560"
     inkscape:window-y="0"
     inkscape:window-maximized="1"
     inkscape:current-layer="surface6" />
  <defs
     id="defs1">
    <clipPath
       id="clip1">
      <path
         d="M 249 0 L 251 0 L 251 114.480469 L 249 114.480469 Z M 249 0 "
         id="path1" />
    </clipPath>
  </defs>
  <g
     id="surface6">
    <path
       style="fill:none;stroke:#000000;stroke-width:1;stroke-linecap:square;stroke-linejoin:miter;stroke-miterlimit:3.25;stroke-opacity:1"
       d="m 168.03516,57.203125 c 0.93337,-8.480637 1.28797,-17.119147 3.49609,-25.390625 0.48754,-2.195866 1.926,-0.212607 1.87898,1.031256 2.19023,11.900231 2.56407,24.046503 3.9107,36.057714 0.77739,6.084385 0.87693,12.362427 2.67472,18.25088 0.83393,0.911759 1.08162,-1.376032 1.2659,-1.875002 2.37155,-13.957693 2.94123,-28.148706 4.48839,-42.209833 0.71095,-5.298823 0.7697,-10.811096 2.49675,-15.895643 0.93628,-0.620266 1.01658,1.64376 1.262,2.195297 2.42007,14.648144 3.00493,29.527548 4.67514,44.26955 0.65593,4.55528 0.67229,9.342441 2.3091,13.671872 1.01629,0.30062 0.9608,-1.862249 1.2659,-2.515646 2.88858,-17.95577 3.19986,-36.225654 5.93852,-54.203125 0.40288,-1.088801 0.19419,-3.052765 1.3206,-3.601563 1.58124,3.046562 1.44284,6.772405 2.0356,10.128923 1.90572,15.826156 2.51055,31.806319 5.0046,47.558593 0.33038,0.70925 0.22201,2.810901 1.2659,2.660148 1.70484,-4.41851 1.68657,-9.338873 2.3638,-14.00001 1.64164,-14.606652 2.24641,-29.34367 4.62174,-43.859376 0.27569,-0.59307 0.28559,-2.816197 1.2659,-2.339828 1.75411,5.063517 1.78431,10.573535 2.503,15.858253 1.54845,14.050956 2.1227,28.230761 4.4771,42.180821 0.11881,0.558932 0.58331,3.150085 1.3753,1.812494 1.94536,-7.275901 2.12963,-14.903952 3.00164,-22.362437 1.27235,-12.025094 1.74839,-24.175206 3.97998,-36.075063 -0.029,-1.179638 1.20151,-2.331661 1.43,-0.550777 2.1397,10.004681 2.48257,20.299431 3.57869,30.453125 1.0169,9.384927 1.32993,18.912167 3.40682,28.140625 0.25302,1.53289 1.34085,0.432662 1.3206,-0.550775 2.19832,-11.247893 2.63036,-22.757434 3.83841,-34.138206 0.89842,-8.084175 1.16875,-16.309034 3.09246,-24.232888 0.56866,-1.747657 1.42082,0.601735 1.43,1.343752 2.3266,13.420704 2.88212,27.075742 4.34435,40.605469 0.75685,5.861106 0.83947,11.92428 2.64117,17.578125 0.89353,0.762009 1.0472,-1.518813 1.2659,-2.039048 2.37795,-14.1895 2.96143,-28.608461 4.54434,-42.897253 0.70004,-5.041449 0.72964,-10.309625 2.44125,-15.130093 0.9845,-0.454894 0.98356,1.760249 1.262,2.359382 2.44782,15.031708 3.04471,30.293758 4.78594,45.414062 0.62953,4.13983 0.61575,8.527528 2.1997,12.4336 1.04544,0.133359 0.93792,-1.958598 1.2659,-2.675784 2.86993,-17.963921 3.17626,-36.24 5.94243,-54.21875 0.38976,-1.015497 0.18824,-3.036287 1.3167,-3.44142 1.62825,3.410639 1.51137,7.458471 2.12982,11.162476 1.83381,15.523406 2.43523,31.195182 4.91044,46.638304 0.31026,0.645698 0.24858,2.815464 1.2659,2.499993 1.72289,-4.679026 1.72317,-9.83493 2.4224,-14.746091 1.59769,-14.390048 2.19432,-28.908917 4.56323,-43.203125 0.24463,-0.548649 0.33104,-2.817436 1.2659,-2.179688 1.78433,5.392748 1.84287,11.213383 2.5865,16.820315 1.47525,13.67484 2.07439,27.466334 4.34431,41.042968 0.24574,0.553544 0.32314,2.814372 1.262,2.199233 1.7764,-5.314564 1.83342,-11.064544 2.56661,-16.596574 1.50943,-13.830231 2.08019,-27.786388 4.41902,-41.512804 0.0919,-0.581176 0.65566,-3.096203 1.3753,-1.652322 1.96685,7.612161 2.1605,15.57032 3.07326,23.358384 1.12457,10.361944 1.43661,20.852156 3.49669,31.086929 -0.0134,1.691117 1.70929,2.41442 1.90237,0.335933 2.04238,-8.176945 2.46214,-16.697718 3.36192,-25.054727"
       id="path2" />
    <path
       style=" stroke:none;fill-rule:evenodd;fill:rgb(100%,0%,0%);fill-opacity:1;"
       d="M 168.035156 57.203125 C 168.035156 49.683594 165.046875 42.472656 159.730469 37.15625 C 154.410156 31.839844 147.199219 28.851562 139.679688 28.851562 C 132.160156 28.851562 124.949219 31.839844 119.632812 37.15625 C 114.316406 42.472656 111.328125 49.683594 111.328125 57.203125 C 111.328125 64.722656 114.316406 71.9375 119.632812 77.253906 C 124.949219 82.570312 132.160156 85.558594 139.679688 85.558594 C 147.199219 85.558594 154.410156 82.570312 159.730469 77.253906 C 165.046875 71.9375 168.035156 64.722656 168.035156 57.203125 Z M 168.035156 57.203125 "
       id="path3" />
    <path
       style=" stroke:none;fill-rule:evenodd;fill:rgb(0%,0%,100%);fill-opacity:1;"
       d="M 388.671875 57.203125 C 388.671875 49.683594 385.683594 42.472656 380.367188 37.15625 C 375.050781 31.839844 367.839844 28.851562 360.320312 28.851562 C 352.800781 28.851562 345.589844 31.839844 340.269531 37.15625 C 334.953125 42.472656 331.964844 49.683594 331.964844 57.203125 C 331.964844 64.722656 334.953125 71.9375 340.269531 77.253906 C 345.589844 82.570312 352.800781 85.558594 360.320312 85.558594 C 367.839844 85.558594 375.050781 82.570312 380.367188 77.253906 C 385.683594 71.9375 388.671875 64.722656 388.671875 57.203125 Z M 388.671875 57.203125 "
       id="path4" />
  </g>
</svg>
